<svg xmlns="http://www.w3.org/2000/svg" version="1.1" xmlns:xlink="http://www.w3.org/1999/xlink" xmlns:svgjs="http://svgjs.dev/svgjs" width="128" height="128" viewBox="0 0 128 128"><g transform="matrix(0.44782608695652176,0,0,0.44782608695652176,35.33913043478261,12.5)"><svg viewBox="0 0 125 225" data-background-color="#915eff" preserveAspectRatio="xMidYMid meet" height="230" width="128" xmlns="http://www.w3.org/2000/svg" xmlns:xlink="http://www.w3.org/1999/xlink"><g id="tight-bounds" transform="matrix(1,0,0,1,0,0)"><svg viewBox="0 0 125 225" height="225" width="125"><g><svg></svg></g><g><svg viewBox="0 0 125 225" height="225" width="125"><g><path d="M8.188 130.945l1.455 1.82-0.727-2.366c-0.182-1.092-1.456 0.182-0.728 0.546M9.825 129.854c0.546 0.91 1.092 1.82 1.092 2.729 0 1.274 1.092 1.82 2.001 2.183-1.274-1.456-2.001-5.459-3.093-4.912M79.694 52.707c3.093 0 6.004-0.364 9.28 0.363 8.006 2.001 14.738 6.004 19.287 11.645l12.736 20.379c0.546 5.095 1.638 10.735 1.456 16.921 1.274 0 1.092-1.82 2.547-2.183-1.456 3.639-2.183 8.188-2.547 13.464-0.91-2.911 0-7.278 0.182-9.643-1.274 2.001-2.001 0.546-2.002-0.364 0.182-1.456-0.546-1.274-1.092-1.82-2.001-1.82-3.275-3.821-4.73-6.914 0.91-2.365 1.092-5.822-1.82-7.642-0.91-0.546-2.001-1.456-2.547-2.911-0.728-2.001-2.001-4.367-1.638-7.46 0.182-0.91-2.729 2.001-4.366 0.728-7.096-4.913-14.192-10.553-22.744-15.284-4.549 0-7.824-1.638-9.462-3.639-1.456-1.82-0.364-4.185 1.82-4.367 1.274 0 2.729-0.364 3.821 0.364 0.182-0.728 0.91-1.638 1.819-1.637M61.681 48.522l0.364 0.182c1.82 0.364 2.729 2.911 4.731 2.001 0 1.274 0.182 2.547-0.182 3.457-0.546 1.456-2.183 1.456-3.457 1.456-12.191-0.728-19.287 4.367-26.747 8.733-2.001 1.274-4.185 2.183-5.822 3.821-7.824 7.278-16.376 14.01-18.377 27.475l-1.638 14.92c-0.182 1.638-2.001 3.275-1.637 5.276l1.273 8.916c-1.274-1.274-2.001 0.364-1.637 1.092 0.182 0.546 0.91 2.365 2.001 0.727 1.456 2.729 2.911 8.006 4.913 10.372 6.186 7.278 14.192 13.828 20.742 20.378 1.638-0.364 2.911-0.364 3.275-1.456 0.546 1.092-0.546 2.183-1.455 2.366 2.911 1.82 6.186 3.457 10.553 3.821 5.64 0.364 10.917 1.274 15.829 2.547 2.547-0.728 5.095-1.092 7.824-1.274 0.91 0 1.456-1.456 2.548-1.819l0.182-1.82c1.092 1.638 0.91-0.546 0.182-1.637 1.274 1.092 1.638 2.001 2.183 2.729 0-0.546 1.456-2.547 1.456-0.182l0.363-2.365c0.546-0.364 0.728 2.001 1.274 0.364 0.546-1.638 1.638-0.364 2.729-0.91-0.364 0.728-0.182 2.183 1.092 1.274l1.456-1.274c0.91 2.183 2.365 1.274 3.093 0.91 8.006-5.095 16.012-11.099 23.653-17.104l-0.182 2.366 0.91-2.911c0.91 0.91 1.638 0.182 2.002-0.364 1.092-1.82 2.547-3.639 4.912-5.277-2.911 7.824-6.368 14.01-10.735 19.105l-1.819 2.183c0 1.274-0.364 2.911-1.82 3.093-0.728 0.182-2.183-0.364-3.275 0.728-0.546 0.728 1.274 2.183-0.182 1.092-1.274-0.91-2.547 0-4.003 0.364-1.092 0.364 0.728 1.456 1.092 2.183 0.364 0.728 0.728 1.456 0.546 2.366l-2.002-2.184c-2.365 1.274-3.821 3.639-5.822 5.459-0.91 0.728-0.546 2.001-0.546 3.093-1.274 0-2.729-0.364-3.457 0.364-0.546 0.728-0.364 1.82-0.364 2.911-1.82-0.182-2.001-2.911-3.639-2.365-1.638 0.364-3.457 0.546-4.913 1.455 1.092 2.183-1.82 0.91-1.455 1.274-2.729-1.638-5.095-2.911-8.006-1.82-6.186-2.001-13.828-1.092-19.469-0.364 0-0.91 0.182-1.82-0.182-2.001-0.364 0.91-1.456 0.546-1.273 0.546-3.457-2.365-6.914-3.821-10.553-5.823-3.275 0.364-6.368-1.274-7.278-2.183-2.547-2.365-5.459-1.092-7.824-1.638-5.095-1.274-6.914-6.55-7.46-10.189-0.364-1.82-1.82-2.547-2.366-2.365-2.365-7.642-6.004-14.556-8.915-21.652-0.728-1.82-0.546-3.639-0.546-5.641 0.91 0.364 1.82 0.182 1.638-1.091-0.91-6.004-3.093-10.553-5.459-14.92 1.274-6.186 1.456-13.464 4.367-18.923 2.547-4.913 7.278-7.46 10.553-11.645 1.092-1.456 1.092-3.457 2.183-4.731 3.639-3.639 7.278-7.46 11.281-10.735 1.82-1.456 4.003 0 6.732-0.546 0.91-3.275 4.549-6.186 8.006-5.276 1.456 0.364 4.367-3.457 5.277-3.821 1.456-0.546 0.728 1.456 0.728 2.729 3.457-2.729 8.188-4.185 12.554-5.822" fill="#ffffff" fill-rule="nonzero" stroke="none" stroke-width="1" stroke-linecap="butt" stroke-linejoin="miter" stroke-miterlimit="10" stroke-dasharray="" stroke-dashoffset="0" font-family="none" font-weight="none" font-size="none" text-anchor="none" style="mix-blend-mode: normal" data-fill-palette-color="tertiary"></path></g><g transform="matrix(1,0,0,1,39.325,86.98044747081713)"><svg viewBox="0 0 46.35 51.03910505836576" height="51.03910505836576" width="46.35"><g><svg viewBox="0 0 46.35 51.03910505836576" height="51.03910505836576" width="46.35"><g><svg viewBox="0 0 46.35 51.03910505836576" height="51.03910505836576" width="46.35"><g id="textblocktransform"><svg viewBox="0 0 46.35 51.03910505836576" height="51.03910505836576" width="46.35" id="textblock"><g><svg viewBox="0 0 46.35 51.03910505836576" height="51.03910505836576" width="46.35"><g transform="matrix(1,0,0,1,0,0)"><svg width="46.35" viewBox="1.5 -36.5 38.55 42.45" height="51.03910505836576" data-palette-color="#ffffff"><path d="M14.25-15.15L14.25-15.15 14.25-13.6 33.75-13.6 33.75-15.15Q33.75-16.5 33.52-17.65 33.3-18.8 32.95-19.8L32.95-19.8 29.5-27.95Q28.95-29.25 28.35-30.13 27.75-31 26.35-31L26.35-31 21.45-31Q19.95-31 19.35-30.13 18.75-29.25 18.25-28L18.25-28 15.05-19.8Q14.7-18.8 14.48-17.65 14.25-16.5 14.25-15.15ZM19.9-17.9L22.25-25.5Q22.45-25.95 22.68-26.15 22.9-26.35 23.2-26.35L23.2-26.35 24.45-26.35Q24.75-26.35 24.98-26.15 25.2-25.95 25.4-25.5L25.4-25.5 27.75-17.9 19.9-17.9ZM34.25-4.5L33.75-4.5 33.75-13.1 14.25-13.1 14.25-4.5 13.75-4.5 13.75-15.15Q13.75-16.55 13.98-17.73 14.2-18.9 14.6-20L14.6-20 17.8-28.2Q18.35-29.6 19.05-30.55 19.75-31.5 21.45-31.5L21.45-31.5 26.35-31.5Q28-31.5 28.68-30.55 29.35-29.6 29.95-28.15L29.95-28.15 33.4-20Q33.8-18.9 34.02-17.73 34.25-16.55 34.25-15.15L34.25-15.15 34.25-4.5ZM19.4-1.8L19.4-1.8 19.4-8.8 28.25-8.8 28.25-1.8Q28.25-0.85 28.73-0.43 29.2 0 30.2 0L30.2 0 37.75 0Q38.7 0 39.13-0.43 39.55-0.85 39.55-1.8L39.55-1.8 39.55-15Q39.55-16.5 39.08-18.45 38.6-20.4 37.6-23L37.6-23 33.25-34.35Q32.95-35.2 32.33-35.6 31.7-36 30.75-36L30.75-36 17.3-36Q16.3-36 15.68-35.6 15.05-35.2 14.75-34.35L14.75-34.35 10.4-23Q9.4-20.4 8.93-18.45 8.45-16.5 8.45-15L8.45-15 8.45-1.8Q8.45-0.85 8.88-0.43 9.3 0 10.25 0L10.25 0 17.6 0Q18.55 0 18.98-0.43 19.4-0.85 19.4-1.8ZM19.2 0.05L12.7 5.45Q12.5 5.65 12.08 5.8 11.65 5.95 11.15 5.95L11.15 5.95 3.8 5.95Q2.6 5.95 2.05 5.4 1.5 4.85 1.5 3.65L1.5 3.65 1.5-9.55Q1.5-11.1 1.98-13.08 2.45-15.05 3.5-17.75L3.5-17.75 7.8-29.05Q7.95-29.5 8.18-29.83 8.4-30.15 8.65-30.4L8.65-30.4 8.7-30.45 15.1-35.8Q15.5-36.15 16.05-36.33 16.6-36.5 17.3-36.5L17.3-36.5 30.75-36.5Q31.9-36.5 32.63-36.02 33.35-35.55 33.7-34.55L33.7-34.55 38.05-23.2Q39.1-20.5 39.58-18.53 40.05-16.55 40.05-15L40.05-15 40.05-1.8Q40.05-1.15 39.88-0.7 39.7-0.25 39.35 0.05L39.35 0.05 32.85 5.45Q32.65 5.65 32.23 5.8 31.8 5.95 31.3 5.95L31.3 5.95 23.75 5.95Q22.5 5.95 21.9 5.38 21.3 4.8 21.3 3.65L21.3 3.65 21.3-2.85 19.9-2.85 19.9-1.8Q19.9-1.15 19.73-0.7 19.55-0.25 19.2 0.05L19.2 0.05Z" opacity="1" transform="matrix(1,0,0,1,0,0)" fill="#ffffff" class="wordmark-text-0" data-fill-palette-color="primary" id="text-0"></path></svg></g></svg></g></svg></g></svg></g><g></g></svg></g></svg></g></svg></g><defs></defs></svg><rect width="125" height="225" fill="none" stroke="none" visibility="hidden"></rect></g></svg></g></svg>